<?xml version="1.0" standalone="no"?>
<!DOCTYPE svg PUBLIC "-//W3C//DTD SVG 20010904//EN"
 "http://www.w3.org/TR/2001/REC-SVG-20010904/DTD/svg10.dtd">
<svg version="1.0" xmlns="http://www.w3.org/2000/svg"
 width="1280.000000pt" height="1280.000000pt" viewBox="0 0 1280.000000 1280.000000"
 preserveAspectRatio="xMidYMid meet">
<metadata>
Created by potrace 1.15, written by Peter Selinger 2001-2017
</metadata>
<g transform="translate(0.000000,1280.000000) scale(0.100000,-0.100000)"
fill="#000000" stroke="none">
<path d="M7485 10789 c-139 -17 -317 -88 -454 -181 -70 -48 -157 -134 -220
-218 -98 -129 -112 -162 -152 -355 -19 -89 -20 -120 -14 -278 l6 -178 -40 -44
c-35 -38 -41 -51 -41 -88 0 -24 11 -71 25 -104 13 -33 27 -81 30 -106 4 -26
15 -86 26 -134 10 -48 21 -95 22 -103 23 -107 57 -160 104 -160 40 0 89 -48
103 -101 17 -63 106 -240 151 -302 49 -66 54 -72 106 -129 24 -26 43 -52 43
-57 0 -6 -39 -31 -87 -55 -49 -24 -117 -60 -151 -80 -35 -20 -70 -36 -78 -36
-8 0 -39 -15 -69 -32 -31 -18 -103 -58 -162 -88 l-107 -55 -106 -210 c-58
-115 -141 -275 -184 -355 -43 -80 -94 -174 -114 -210 -19 -36 -47 -87 -62
-115 -15 -27 -49 -90 -75 -140 -62 -117 -67 -123 -98 -103 -13 9 -55 45 -94
80 -38 34 -99 88 -134 118 -121 105 -149 133 -149 149 -1 28 -31 56 -172 159
-39 28 -40 27 -76 -3 -38 -32 -55 -32 -82 2 -18 23 -20 35 -14 78 11 77 9 86
-58 196 -83 137 -94 146 -176 154 -37 3 -78 10 -92 14 -14 5 -52 16 -85 26
-76 23 -78 25 -135 110 -26 38 -57 79 -69 89 -11 11 -21 25 -21 33 0 7 -4 13
-9 13 -5 0 -29 28 -53 61 -23 34 -59 80 -78 103 -20 22 -44 52 -53 66 -9 14
-33 45 -52 70 -20 25 -45 64 -56 88 -11 24 -27 46 -35 49 -7 3 -31 28 -51 57
-42 56 -43 58 -105 134 -52 64 -74 95 -110 153 -15 24 -51 72 -80 105 -49 57
-182 232 -219 291 -26 39 -70 94 -117 144 -23 25 -42 50 -42 55 -1 21 -107
139 -128 142 -34 5 -52 -16 -52 -59 0 -39 13 -62 57 -102 13 -11 23 -24 23
-29 0 -4 27 -41 60 -82 33 -41 60 -79 60 -84 0 -6 24 -40 54 -77 30 -36 61
-79 68 -96 7 -16 16 -29 20 -29 4 0 20 -19 34 -42 15 -24 42 -58 60 -76 19
-18 34 -40 34 -49 0 -8 23 -41 50 -73 27 -32 50 -62 50 -68 0 -5 7 -12 15 -16
8 -3 15 -11 15 -17 0 -7 19 -35 43 -63 24 -28 54 -68 67 -90 13 -21 41 -59 62
-84 22 -25 44 -55 49 -66 5 -12 28 -46 52 -77 23 -31 56 -75 72 -98 17 -24 58
-78 92 -121 35 -43 71 -92 80 -108 25 -40 79 -115 135 -184 l46 -59 -15 -37
c-13 -32 -13 -39 1 -70 14 -28 15 -39 4 -68 -9 -26 -9 -41 0 -66 6 -18 11 -53
11 -78 -1 -60 18 -140 39 -163 9 -11 33 -28 52 -38 19 -11 42 -23 50 -28 55
-34 111 -52 182 -60 65 -7 85 -14 105 -34 l25 -24 -20 -40 c-11 -22 -28 -45
-36 -52 -9 -8 -16 -25 -16 -40 0 -21 16 -38 85 -88 59 -44 94 -63 114 -63 17
0 42 -11 59 -25 17 -14 33 -25 37 -25 3 0 25 -13 48 -28 23 -15 54 -34 70 -42
24 -12 64 -47 275 -237 60 -55 234 -192 314 -249 60 -42 93 -30 190 69 91 93
172 200 290 384 78 121 108 163 118 163 6 0 10 -50 10 -132 0 -73 1 -214 3
-313 1 -99 -2 -227 -6 -285 -13 -202 -18 -508 -7 -515 16 -10 12 -124 -11
-299 -11 -88 -18 -174 -14 -191 4 -16 8 -307 8 -645 2 -487 5 -620 15 -640 7
-14 32 -39 56 -57 50 -39 209 -123 231 -123 11 0 15 -12 15 -52 1 -29 5 -73
11 -98 5 -25 14 -85 19 -135 22 -225 32 -302 40 -330 5 -16 12 -84 15 -150 4
-65 9 -123 12 -128 3 -6 5 -40 4 -77 -1 -40 4 -83 13 -106 8 -22 17 -91 20
-159 3 -66 10 -181 15 -255 5 -74 14 -241 20 -370 6 -129 16 -254 21 -278 11
-47 6 -61 -50 -137 -16 -22 -29 -48 -30 -58 0 -29 -31 -74 -59 -88 -14 -8 -38
-28 -54 -45 -32 -38 -96 -62 -179 -68 -81 -6 -132 -37 -153 -92 -21 -55 -7
-110 31 -124 31 -12 599 -10 639 2 16 5 52 13 79 18 42 9 51 8 62 -7 10 -15
32 -18 128 -21 l116 -4 30 32 c60 64 91 242 59 338 -8 25 -8 58 0 126 22 189
23 262 6 461 -16 202 -19 232 -29 295 -3 19 -10 121 -17 225 -6 105 -12 208
-14 230 -19 233 -46 664 -56 895 -4 113 -11 273 -15 356 l-7 151 33 6 c71 15
257 4 276 -16 2 -2 7 -28 10 -58 10 -115 34 -287 50 -364 8 -44 19 -120 24
-170 5 -49 16 -137 25 -195 9 -58 20 -145 25 -195 17 -178 31 -298 36 -306 3
-5 9 -55 14 -111 21 -242 31 -335 40 -373 5 -22 12 -80 14 -130 5 -90 14 -175
35 -357 7 -53 23 -125 36 -159 14 -35 25 -71 25 -82 0 -10 8 -41 17 -69 14
-44 15 -59 4 -107 -7 -31 -17 -95 -22 -144 -10 -87 -10 -88 23 -154 51 -103
51 -103 87 -113 45 -12 721 -13 754 -1 34 13 41 42 27 101 -15 62 -73 120
-122 120 -18 0 -45 11 -65 26 -27 20 -33 32 -33 63 0 23 -15 66 -40 117 l-39
79 0 210 c0 116 -3 221 -6 235 -4 14 -11 75 -15 135 -5 61 -15 178 -24 260 -8
83 -20 199 -26 259 -5 59 -13 113 -16 118 -3 5 -10 75 -15 156 -5 81 -14 192
-19 247 -5 55 -14 172 -20 260 -6 88 -14 203 -19 255 -4 52 -4 105 1 118 4 13
26 31 50 42 102 47 217 141 219 179 4 83 -9 215 -33 344 -13 69 -6 80 42 68
34 -9 167 -29 335 -50 44 -6 112 -15 152 -21 140 -20 173 -6 173 71 0 23 9 78
21 123 11 44 25 99 31 121 5 22 16 58 23 80 8 22 19 69 25 105 6 36 18 88 26
116 8 28 14 58 14 67 0 10 4 17 8 17 4 0 9 15 10 33 1 17 8 55 16 82 7 28 19
77 25 110 7 33 19 82 27 109 8 26 14 56 14 65 0 9 11 50 25 91 42 128 31 180
-36 180 -25 0 -50 7 -159 46 -41 14 -110 34 -153 44 -43 10 -84 23 -91 29 -8
7 -18 11 -22 10 -16 -4 -86 13 -113 27 -14 8 -34 14 -43 14 -20 0 -23 21 -9
48 5 9 11 31 14 47 3 17 11 45 17 63 7 18 10 38 7 45 -3 8 3 47 13 89 10 41
16 86 14 99 -2 13 -10 67 -18 119 -8 52 -18 120 -21 150 -8 69 -17 125 -50
325 -15 88 -31 187 -36 220 -5 33 -12 67 -15 75 -3 8 -8 33 -10 55 -3 22 -9
54 -14 70 -5 17 -12 50 -15 75 -41 275 -142 661 -195 748 -13 22 -37 40 -68
53 -26 11 -87 39 -137 63 -160 77 -226 106 -240 106 -7 0 -26 6 -42 14 -75 38
-160 76 -170 76 -22 0 -123 70 -123 86 0 20 25 58 84 129 28 33 53 62 56 65 3
3 25 30 50 60 25 30 47 57 50 60 18 18 88 133 104 170 35 85 39 90 77 100 33
9 40 16 49 51 6 23 11 64 10 93 -2 76 -1 83 15 100 8 8 21 43 28 78 8 35 28
93 45 130 38 81 41 142 12 222 -15 39 -28 57 -48 65 l-27 12 -2 147 c-2 127
-6 162 -32 257 -36 135 -60 205 -77 225 -7 8 -16 28 -20 44 -8 32 -73 154
-101 189 -39 49 -183 175 -229 201 -218 122 -426 164 -669 135z m1236 -4556
c16 -139 15 -219 -1 -315 -14 -80 -30 -103 -31 -45 0 17 -3 133 -5 256 -5 222
-1 279 16 234 5 -12 14 -70 21 -130z"/>
</g>
</svg>
